<svg version="1.1" id="Ebene_1" xmlns="http://www.w3.org/2000/svg" xmlns:xlink="http://www.w3.org/1999/xlink" x="0" y="0" viewBox="0 0 1200 1200" xml:space="preserve" enable-background="new 0 0 1200 1200">
  <path
    d="M262.92,107a2.53,2.53,0,0,1,1.95-1.62,5.13,5.13,0,0,1,2.73.26,5.31,5.31,0,0,1,2.23,1.47,2,2,0,0,1,.44,2.13c-.34.86-.74,2-1.19,3.49s-.9,3-1.33,4.53-.84,3-1.23,4.47-.67,2.51-.86,3.27a2.15,2.15,0,0,1-1.66,1.62,5.9,5.9,0,0,1-2.77.15,4.94,4.94,0,0,1-2.41-1.12,2.12,2.12,0,0,1-.65-2.3l.9-3.39q.62-2.3,1.33-4.86t1.41-4.82A33.78,33.78,0,0,1,262.92,107Zm13.47-10.87a2.14,2.14,0,0,1,.93-1.83A7.81,7.81,0,0,1,280,93a15.92,15.92,0,0,1,3.53-.64,15.09,15.09,0,0,1,3.64.14,8.47,8.47,0,0,1,3,1,3.15,3.15,0,0,1,1.55,2.06,78.71,78.71,0,0,1,1.23,7.84q.5,4.55.68,9.4c.12,3.24.15,6.4.11,9.47a75.14,75.14,0,0,1-.51,8.06,2.69,2.69,0,0,1-1.65,2.09,11.64,11.64,0,0,1-3.64,1.12,27.47,27.47,0,0,1-4.54.28,23.5,23.5,0,0,1-4.39-.43,10.44,10.44,0,0,1-3.17-1.08c-.79-.45-1.09-1-.89-1.62a37.86,37.86,0,0,0,1.54-7.81c.31-3,.49-6.09.54-9.29s0-6.32-.14-9.39S276.53,98.43,276.39,96.12Zm20.52,13.18a1.91,1.91,0,0,1-.11-2,4.86,4.86,0,0,1,1.62-1.88,4.77,4.77,0,0,1,2.37-.86,2.22,2.22,0,0,1,2.09,1q1.44,2,2.7,3.71c.84,1.18,1.63,2.34,2.38,3.49s1.46,2.34,2.16,3.57,1.4,2.55,2.12,4a2.58,2.58,0,0,1-.14,2.74,5.7,5.7,0,0,1-2.31,2,5.14,5.14,0,0,1-3,.47,2.69,2.69,0,0,1-2.2-1.8,71.56,71.56,0,0,0-3.6-7.56C299.71,113.72,298.35,111.46,296.91,109.3Z"    
  />
  <path
    d="M328.59,109a2.24,2.24,0,0,1,1.54-1.33,3.48,3.48,0,0,1,2.09.14,3.94,3.94,0,0,1,1.69,1.19,1.62,1.62,0,0,1,.29,1.73l-1.87,4.93c-.72,1.9-1.44,3.85-2.16,5.87.77.43,1.64,1,2.63,1.62s2,1.33,3,2,2,1.47,2.91,2.23,1.77,1.51,2.49,2.23a2,2,0,0,1,.61,2.09,4.48,4.48,0,0,1-1.23,2,5.26,5.26,0,0,1-2,1.22,1.56,1.56,0,0,1-1.77-.36q-1.8-1.86-4.06-3.78c-1.52-1.27-3-2.46-4.58-3.56-.38,1.15-.73,2.23-1,3.24s-.56,1.9-.75,2.66a1.72,1.72,0,0,1-1.48,1.23,5.41,5.41,0,0,1-2.56,0,5.28,5.28,0,0,1-2.23-1.15,1.84,1.84,0,0,1-.5-2.13c.29-1,.68-2.11,1.18-3.45s1.07-2.76,1.7-4.25a11.8,11.8,0,0,1-1.91.29,9.19,9.19,0,0,1-2-.07,5.58,5.58,0,0,1-1.58-.47,1.15,1.15,0,0,1-.73-.83c-.09-.53-.2-1.38-.32-2.56s-.22-2.52-.29-4-.11-3.13-.11-4.86a48.7,48.7,0,0,1,.26-5,28.77,28.77,0,0,1,.79-4.5A10.19,10.19,0,0,1,318.07,98a4.62,4.62,0,0,1,2-1.33,18.43,18.43,0,0,1,3.49-1,32.11,32.11,0,0,1,4.25-.47,37.61,37.61,0,0,1,4.39,0,21.87,21.87,0,0,1,3.93.61A7.66,7.66,0,0,1,339,97.13a6.59,6.59,0,0,1,1.83,2.63,22.33,22.33,0,0,1,1.23,4,36,36,0,0,1,.64,4.83c.12,1.73.16,3.41.11,5a35.35,35.35,0,0,1-.43,4.64,18.82,18.82,0,0,1-.94,3.71,2.49,2.49,0,0,1-1.76,1.62,5.12,5.12,0,0,1-2.49,0,5.94,5.94,0,0,1-2.12-.94c-.6-.43-.83-.84-.68-1.22a24.84,24.84,0,0,0,.86-4.54,50,50,0,0,0,.29-5.33c0-1.77-.07-3.45-.22-5a21.57,21.57,0,0,0-.57-3.67c-.2-.58-.8-1-1.8-1.26a11.36,11.36,0,0,0-3.31-.32,12.16,12.16,0,0,0-3.28.54c-1,.31-1.53.71-1.62,1.18a28.42,28.42,0,0,0-.61,4c-.12,1.42-.18,2.84-.18,4.28s0,2.84.07,4.18.12,2.55.22,3.6q1.21-3,2.41-5.62Zm24.19-16.56c0-.77.59-1.38,1.76-1.84a11.64,11.64,0,0,1,3.93-.72,10.4,10.4,0,0,1,4,.69,2.67,2.67,0,0,1,2,2.23l.29,4.61a45,45,0,0,1,5.26,0,1.7,1.7,0,0,1,1.47,1,4.13,4.13,0,0,1,.47,2,4.49,4.49,0,0,1-.43,2c-.29.6-.67.9-1.15.9l-5.26.43c.05.68.07,1.33.07,2v2a26,26,0,0,1,3.75.65,11.33,11.33,0,0,1,2.66,1,5.93,5.93,0,0,1,2.16,2.66,21.29,21.29,0,0,1,1.51,4.43,27.59,27.59,0,0,1,.69,5.29,30.19,30.19,0,0,1-.25,5.29,15.53,15.53,0,0,1-1.3,4.43,5.7,5.7,0,0,1-2.52,2.74,18.42,18.42,0,0,1-5.76,1.62,49.48,49.48,0,0,1-7,.43,46.15,46.15,0,0,1-6.8-.54,24,24,0,0,1-5.19-1.3,4.81,4.81,0,0,1-2.41-2.62,16.57,16.57,0,0,1-1.26-4.61,30.76,30.76,0,0,1-.22-5.58,36.28,36.28,0,0,1,.69-5.55,19.48,19.48,0,0,1,1.47-4.5,5.11,5.11,0,0,1,2.16-2.48,21.53,21.53,0,0,1,4.47-1.15q.43-3.67.57-7.27C352.66,98.19,352.73,95.47,352.78,92.45Zm1.29,22a2.43,2.43,0,0,0-1.29,1.4,10.62,10.62,0,0,0-.76,2.63,16.87,16.87,0,0,0-.21,3.24,21.15,21.15,0,0,0,.29,3.21,11.43,11.43,0,0,0,.68,2.52c.29.69.65,1.09,1.08,1.18a15.57,15.57,0,0,0,2.59.44,26.4,26.4,0,0,0,3.1.1q1.57,0,3.09-.21a11.68,11.68,0,0,0,2.52-.54,2.64,2.64,0,0,0,1.52-1.33,9.53,9.53,0,0,0,.89-2.45,13,13,0,0,0,.33-3,24.39,24.39,0,0,0-.18-3,11.31,11.31,0,0,0-.61-2.56,3.55,3.55,0,0,0-1-1.55,5.41,5.41,0,0,0-2.27-.61,32.13,32.13,0,0,0-3.53-.18,28.1,28.1,0,0,0-3.63.22A14.58,14.58,0,0,0,354.07,114.41Z"
  />
  <path
    d="M383.09,134.57a8.75,8.75,0,0,1-2-3.28,19.33,19.33,0,0,1-1.15-4.75,31.82,31.82,0,0,1-.18-5.58,32.34,32.34,0,0,1,.79-5.76,2.6,2.6,0,0,1,1.66-1.8,5.08,5.08,0,0,1,5.11.9,2.38,2.38,0,0,1,.79,2.27,30.64,30.64,0,0,0-.47,4,27.77,27.77,0,0,0,.07,4,12.82,12.82,0,0,0,.76,3.42,5.16,5.16,0,0,0,1.58,2.3,6.84,6.84,0,0,0,2.74.87,37.89,37.89,0,0,0,5,.46c1.92.08,4,.1,6.3.08s4.54-.12,6.8-.29,4.39-.41,6.41-.72a29.83,29.83,0,0,0,5.11-1.19q.07-3.68,0-7.34t-.25-7.13a1.51,1.51,0,0,1,1-1.48,5.73,5.73,0,0,1,2.31-.61,5,5,0,0,1,2.37.43,2,2,0,0,1,1.27,1.66q.42,4.32.57,9.61c.1,3.53.07,7.29-.07,11.27a2.12,2.12,0,0,1-1.23,2.05,5.74,5.74,0,0,1-2.62.61,6.73,6.73,0,0,1-2.6-.5c-.79-.34-1.16-.77-1.11-1.3a4.63,4.63,0,0,1,0-.54,2.63,2.63,0,0,0,0-.47c-2,.48-4.25.9-6.7,1.26s-5,.63-7.59.8-5.21.24-7.78.21a71.59,71.59,0,0,1-7.16-.39,33.87,33.87,0,0,1-5.87-1.12A8.8,8.8,0,0,1,383.09,134.57Zm37.3-44.42a3.36,3.36,0,0,1,2.55,2.3,10,10,0,0,1,.65,4.18,10.43,10.43,0,0,1-1,4,2.5,2.5,0,0,1-2.38,1.73q-7.41-.28-15.41-.08c-5.32.15-10.68.48-16.05,1a2.11,2.11,0,0,1-1.8-.86,6.88,6.88,0,0,1-1.26-2.38,12.76,12.76,0,0,1-.58-3.17,12.09,12.09,0,0,1,.22-3.27A6.88,6.88,0,0,1,386.51,91a3,3,0,0,1,2.2-1.26c2.45-.28,5-.5,7.74-.64s5.46-.21,8.24-.18,5.52.14,8.21.36S418.08,89.76,420.39,90.15Zm-3.75,16a4.82,4.82,0,0,1,2,2.38,16.51,16.51,0,0,1,1.19,4,29.17,29.17,0,0,1,.39,4.86,33.38,33.38,0,0,1-.32,4.75,14.08,14.08,0,0,1-1,3.75,3,3,0,0,1-1.8,1.83,28.16,28.16,0,0,1-5.08.83c-2,.17-4.06.27-6.19.29s-4.24,0-6.3-.22a40.67,40.67,0,0,1-5.4-.75,3.13,3.13,0,0,1-2.09-1.8,14.91,14.91,0,0,1-1.37-3.78,25.87,25.87,0,0,1-.61-4.79,23.32,23.32,0,0,1,.29-4.93,14.21,14.21,0,0,1,1.26-4.07,4.12,4.12,0,0,1,2.3-2.23,29.5,29.5,0,0,1,5.47-1.37,45.39,45.39,0,0,1,6.3-.58,36.77,36.77,0,0,1,6.12.36A15.53,15.53,0,0,1,416.64,106.2Zm-17.78,4a2.67,2.67,0,0,0-1.44,1.7,11.45,11.45,0,0,0-.65,3.13h2.59c.91,0,1.83,0,2.74-.07.09-1.11.18-2.13.25-3.06a19.1,19.1,0,0,1,.32-2.42q-1.21.15-2.19.33A12.94,12.94,0,0,0,398.86,110.23Zm.14,13.68a9.16,9.16,0,0,0,1.26.22c.46.05.95.12,1.48.22V122c0-.86,0-1.8.07-2.81l-2.48,0c-.84,0-1.67-.06-2.49-.11a12.83,12.83,0,0,0,.79,3.28C398,123.3,398.47,123.82,399,123.91Zm13.32-.07c.39-.09.71-.47,1-1.11a10.63,10.63,0,0,0,.62-2.38,20.46,20.46,0,0,0,.21-3,24.7,24.7,0,0,0-.18-3.06,10.12,10.12,0,0,0-.61-2.52,2.74,2.74,0,0,0-1.08-1.44,7.46,7.46,0,0,0-2.09-.65,20.5,20.5,0,0,0-2.59-.29,15.75,15.75,0,0,0-.14,2.38v3.09c.76,0,1.47-.09,2.12-.14l1.69-.15a1.21,1.21,0,0,1,1.12.58,2.66,2.66,0,0,1,.5,1.48,3,3,0,0,1-.32,1.54,1.45,1.45,0,0,1-1.3.8,8.66,8.66,0,0,1-1.51.18l-2.16.1.22,5.19A21,21,0,0,0,412.32,123.84Z" 
  />
</svg>